
<svg width="529px" height="469px" viewBox="0 0 529 469" version="1.1" xmlns="http://www.w3.org/2000/svg" xmlns:xlink="http://www.w3.org/1999/xlink">
    <!-- Generator: Sketch 47.1 (45422) - http://www.bohemiancoding.com/sketch -->
    <desc>Created with Sketch.</desc>
    <defs></defs>
    <g id="Page-1" stroke="none" stroke-width="1" fill="none" fill-rule="evenodd" stroke-linecap="round" stroke-linejoin="round">
        <path d="M10.0800505,84.2929871 C167.041618,53.6735741 250.593674,34.5608713 399.697094,13.8666014 C409.81345,12.4625384 439.475714,8.27358584 430.318377,12.7963305 C316.362293,69.0784412 187.545665,88.1443218 75.8408244,149.855088 C73.6923288,151.042013 67.6667894,154.356097 70.1177593,154.488656 C176.402735,160.237013 283.666359,145.696857 389.103336,135.294277 C476.115909,126.709478 409.430344,129.306022 498.251736,123.220084 C504.807529,122.770889 516.363148,116.847209 517.965228,123.220084 C519.521698,129.411526 505.644822,126.654124 499.700127,128.981602 C470.604332,140.37324 441.696627,152.247237 412.892829,164.358219 C335.934074,196.716664 236.66548,238.530369 159.418083,276.454672 C152.10227,280.046341 86.5779168,314.352476 80.4423482,329.481145 C79.8604391,330.915977 83.3469513,330.947765 84.8900606,330.820586 C141.958568,326.117149 199.34331,323.670817 255.947542,315.016466 C326.491382,304.230858 395.807252,286.548712 465.791126,272.583752 C469.051203,271.933219 459.227912,273.856637 456.133053,275.070369 C428.017232,286.096748 400.550209,298.769439 372.235354,309.274175 C329.476154,325.137724 285.883232,338.671868 242.982524,354.148645 C209.564296,366.204541 175.899435,377.743748 143.299932,391.864477 C117.395264,403.085287 92.5331351,416.614066 67.7144564,430.067379 C59.784438,434.365956 52.3740302,439.608326 45.1810892,445.051171 C42.4303568,447.13263 39.0504494,449.235503 38.02886,452.530249 C37.5729549,454.000597 40.9387262,453.704259 42.4765725,453.773558 C81.5604774,455.534761 120.655043,457.222974 159.770568,458.016188 C292.016653,460.697975 235.875268,455.115191 399.979082,451.088268 C429.068824,450.374438 458.171054,451.853052 487.26704,452.235444" id="Path-2" stroke="#B91111" stroke-width="20"></path>
    </g>
</svg>