<svg width="703px" height="516px" viewBox="0 0 703 516" version="1.1" xmlns="http://www.w3.org/2000/svg" xmlns:xlink="http://www.w3.org/1999/xlink">
    <!-- Generator: Sketch 47.1 (45422) - http://www.bohemiancoding.com/sketch -->
    <desc>Created with Sketch.</desc>
    <defs>
        <rect id="path-1" x="195" y="217" width="632" height="30" rx="8"></rect>
        <rect id="path-2" x="194" y="263" width="659" height="349" rx="8"></rect>
    </defs>
    <g id="Page-1" stroke="none" stroke-width="1" fill="none" fill-rule="evenodd">
        <g id="Browser" transform="translate(-97.000000, -84.000000)">
            <rect id="background" fill="#F5F5F5" x="97" y="139" width="1283" height="524"></rect>
            <g id="Icon-|-SBOL" transform="translate(195.000000, 158.000000)">
                <path d="M5.15398971,4.94321041 L12.1706781,8.93471191 L27.8600052,-1.31006317e-14 C28.6620047,0.339564158 29.437034,0.729514347 30.1810298,1.16582927 L12.1706781,11.4577696 L3.75325473,6.66054354 C4.18813133,6.06223559 4.65591722,5.48892601 5.15398971,4.94321041 Z M2.64640033,8.3598815 L12.1706781,13.7778461 L32.0875681,2.43563404 C32.7078877,2.90203484 33.2998513,3.40346173 33.86045,3.93693684 L12.1706781,16.2860163 L1.65833216,10.3022825 C1.95239766,9.63485013 2.2825677,8.98657757 2.64640033,8.3598815 Z M0.898334866,12.3230858 L12.1706781,18.7368379 L35.3655601,5.53550958 C35.8392559,6.09753275 36.2820614,6.68594644 36.6913954,7.2981959 L12.1706781,21.244648 L0.347247915,14.5147382 C0.489481939,13.768548 0.674031519,13.0371521 0.898334866,12.3230858 Z M0.0458563321,16.8554324 L12.1706781,23.7675056 L37.7801655,9.13414125 C39.1988306,11.8518686 40,14.9365653 40,18.2064536 C40,29.1381274 31.045695,38 20,38 C8.954305,38 0,29.1381274 0,18.2064536 C0,17.7523798 0.0154493922,17.3018772 0.0458563321,16.8554324 Z" id="Icon-SBOL" fill="#2A9F30" style="mix-blend-mode: darken;"></path>
                <path d="M55.2721382,35.9061327 C59.4416847,35.9061327 61.8650108,33.1652065 61.8650108,29.0538173 C61.8650108,25.1489362 59.762419,22.2202753 55.5572354,22.2202753 C51.5658747,22.2202753 49,24.8485607 49,29.0162703 C49,33.1276596 51.2095032,35.9061327 55.2721382,35.9061327 L55.2721382,35.9061327 Z M55.325594,34.2540676 C52.3320734,34.2540676 50.924406,31.8322904 50.924406,28.9974969 C50.924406,26.0876095 52.3855292,23.853567 55.450324,23.853567 C58.3903888,23.853567 59.9227862,26.0876095 59.9227862,29.0350438 C59.9227862,31.9824781 58.5151188,34.2540676 55.325594,34.2540676 L55.325594,34.2540676 Z M64.0566955,35.6808511 L65.9276458,35.6808511 L65.9276458,31.3254068 L70.5070194,31.3254068 L70.5070194,35.6808511 L72.3779698,35.6808511 L72.3779698,25.4305382 L70.5070194,25.4305382 L70.5070194,29.767209 L65.9276458,29.767209 L65.9276458,25.4305382 L64.0566955,25.4305382 L64.0566955,35.6808511 Z M74.2845572,36 C75.5318575,35.6245307 76.4227862,34.9862328 76.975162,33.9724656 C77.6166307,32.7146433 77.9551836,30.5369212 78.2224622,26.9699625 L80.9843413,26.9699625 L80.9843413,35.6808511 L82.837473,35.6808511 L82.837473,25.4305382 L76.5831533,25.4305382 C76.4762419,28.9599499 76.137689,31.7947434 75.6031317,32.8460576 C75.175486,33.6720901 74.3914687,34.0851064 73.7321814,34.3479349 L74.2845572,36 Z M87.7553996,35.8498123 C89.3056156,35.8498123 90.3034557,35.0425532 90.9092873,34.5544431 C91.087473,35.4743429 92.0674946,35.7934919 93.0653348,35.7934919 C93.1900648,35.7934919 93.3860691,35.7747184 93.5107991,35.7559449 L93.5820734,34.2540676 C93.0831533,34.2352941 92.5664147,34.1038798 92.5664147,33.465582 L92.5664147,28.1151439 C92.5664147,26.0312891 91.2834773,25.1677096 88.9492441,25.1677096 C87.5237581,25.1677096 86.4368251,25.4680851 85.5280778,25.8623279 L85.9200864,27.3454318 C86.7575594,27.0450563 87.612851,26.8573217 88.6463283,26.8573217 C90.0718143,26.8573217 90.7489201,27.232791 90.7489201,28.640801 L90.7489201,29.7484355 L88.6285097,29.7859825 C86.9357451,29.8047559 84.761879,30.330413 84.761879,32.9211514 C84.761879,34.8172716 85.9557235,35.8498123 87.7553996,35.8498123 L87.7553996,35.8498123 Z M88.2365011,34.2916145 C87.2921166,34.2916145 86.5793736,33.8222778 86.5793736,32.7897372 C86.5793736,31.738423 87.3455724,31.1376721 88.6819654,31.1001252 L90.7489201,31.0062578 L90.7489201,33.3717146 C90.0539957,33.8410513 89.1096112,34.2916145 88.2365011,34.2916145 L88.2365011,34.2916145 Z M99.7116631,23.6658323 C100.923326,23.6658323 101.992441,23.008761 102.616091,21.9386733 L101.832073,21 C101.137149,21.844806 100.424406,22.126408 99.7116631,22.126408 C99.0167387,22.126408 98.2861771,21.844806 97.6090713,21 L96.8072354,21.9386733 C97.4308855,23.008761 98.5178186,23.6658323 99.7116631,23.6658323 L99.7116631,23.6658323 Z M95.3639309,35.6808511 L97.2348812,35.6808511 L101.386609,29.4668335 L102.224082,28.0400501 L102.170626,29.4480601 L102.170626,35.6808511 L104.041577,35.6808511 L104.041577,25.4305382 L102.170626,25.4305382 L98.0188985,31.6821026 L97.1814255,33.0713392 L97.2348812,31.7008761 L97.2348812,25.4305382 L95.3639309,25.4305382 L95.3639309,35.6808511 Z M106.678726,35.6808511 L108.549676,35.6808511 L108.549676,31.3254068 L113.12905,31.3254068 L113.12905,35.6808511 L115,35.6808511 L115,25.4305382 L113.12905,25.4305382 L113.12905,29.767209 L108.549676,29.767209 L108.549676,25.4305382 L106.678726,25.4305382 L106.678726,35.6808511 Z" id="Онлайн" fill="#F59624"></path>
                <path d="M55.7344051,18.012109 C57.4990354,18.012109 58.5073955,17.7245207 59.4617363,17.3410696 L59.0115756,15.7305752 C58.1652733,16.0181635 57.2469453,16.209889 56.0405145,16.209889 C53.2135048,16.209889 50.9807074,14.5993946 50.9807074,10.8990918 C50.9807074,7.27547931 53.1414791,5.78002018 55.6983923,5.79919273 C57.1389068,5.79919273 57.8771704,6.04843592 58.8855305,6.39354188 L59.4437299,4.82139253 C58.6514469,4.41876892 57.5350482,4.03531786 55.6623794,4.03531786 C51.4848875,4.03531786 49,6.81533804 49,11.0908174 C49,15.2512614 51.3948553,18.012109 55.7344051,18.012109 L55.7344051,18.012109 Z M65.2418006,17.9545913 C67.9607717,17.9545913 69.9954984,16.2865792 69.9954984,12.5479314 C69.9954984,9.36528759 68.5009646,8.11907164 66.1421222,8.11907164 C64.755627,8.11907164 63.6212219,8.57921292 62.792926,9.05852674 C62.9009646,8.1382442 63.1350482,6.91120081 63.6572347,6.37436932 C64.2514469,5.76084763 66.6823151,5.30070636 69.4192926,4.80221998 L69.1131833,3 C66.0340836,3.6135217 63.3871383,4.28456105 62.3967846,5.2815338 C61.2623794,6.41271443 60.8842444,9.78708375 60.8842444,11.9344097 C60.8842444,16.1523713 62.540836,17.9545913 65.2418006,17.9545913 L65.2418006,17.9545913 Z M65.3858521,16.3440969 C63.585209,16.3440969 62.7028939,14.8869828 62.7028939,11.7618567 C62.7028939,11.4167508 62.7209003,10.9182644 62.7389068,10.5731584 C63.6212219,10.0938446 64.5215434,9.67204844 65.6559486,9.67204844 C67.4385852,9.67204844 68.1048232,10.9566095 68.1048232,12.6246216 C68.1048232,14.4268416 67.5106109,16.3440969 65.3858521,16.3440969 L65.3858521,16.3440969 Z M76.3877814,18.012109 C77.6662379,18.012109 78.8366559,17.7820383 79.7009646,17.4369324 L79.3768489,15.8839556 C78.4045016,16.1907164 77.6122187,16.3440969 76.6758842,16.3440969 C74.9472669,16.3440969 73.4707395,15.7880928 73.4527331,13.0272452 L79.9170418,13.0272452 L79.9170418,12.3178607 C79.9170418,8.90514632 78.7646302,7.04540868 76.0096463,7.04540868 C73.5427653,7.04540868 71.5620579,8.59838547 71.5620579,12.7396569 C71.5620579,16.7850656 73.4527331,18.012109 76.3877814,18.012109 L76.3877814,18.012109 Z M73.5067524,11.6276488 C73.6327974,9.57618567 74.6051447,8.56004036 75.9016077,8.56004036 C77.3421222,8.56004036 77.9723473,9.7679112 77.9723473,11.6276488 L73.5067524,11.6276488 Z M81.9877813,22 L83.8604502,22 L83.8604502,17.839556 C84.2926045,17.8970737 84.9588424,17.9929364 85.5710611,17.9929364 C88.2180064,17.9929364 90.5948553,16.554995 90.5948553,12.2795156 C90.5948553,8.790111 89.0102894,7.06458123 86.6874598,7.06458123 C85.4810289,7.06458123 84.7067524,7.50554995 83.8604502,8.1382442 L83.8604502,7.31382442 L81.9877813,7.31382442 L81.9877813,22 Z M85.5350482,16.382442 C84.8688103,16.382442 84.0945338,16.2290616 83.8604502,16.1907164 L83.8604502,9.55701312 C84.3646302,9.26942482 85.1389068,8.77093845 86.1652733,8.77093845 C88.0559486,8.77093845 88.6861736,10.4772957 88.6861736,12.3753784 C88.6861736,14.7144299 87.7858521,16.382442 85.5350482,16.382442 L85.5350482,16.382442 Z M96.7530547,17.9545913 C99.4720257,17.9545913 101.506752,16.2865792 101.506752,12.5479314 C101.506752,9.36528759 100.012219,8.11907164 97.6533762,8.11907164 C96.266881,8.11907164 95.1324759,8.57921292 94.3041801,9.05852674 C94.4122186,8.1382442 94.6463023,6.91120081 95.1684887,6.37436932 C95.762701,5.76084763 98.1935691,5.30070636 100.930547,4.80221998 L100.624437,3 C97.5453376,3.6135217 94.8983923,4.28456105 93.9080386,5.2815338 C92.7736334,6.41271443 92.3954984,9.78708375 92.3954984,11.9344097 C92.3954984,16.1523713 94.05209,17.9545913 96.7530547,17.9545913 L96.7530547,17.9545913 Z M96.8971061,16.3440969 C95.096463,16.3440969 94.2141479,14.8869828 94.2141479,11.7618567 C94.2141479,11.4167508 94.2321543,10.9182644 94.2501608,10.5731584 C95.1324759,10.0938446 96.0327974,9.67204844 97.1672026,9.67204844 C98.9498392,9.67204844 99.6160772,10.9566095 99.6160772,12.6246216 C99.6160772,14.4268416 99.021865,16.3440969 96.8971061,16.3440969 L96.8971061,16.3440969 Z M105.918328,17.9545913 C107.484887,17.9545913 108.493248,17.1301715 109.105466,16.6316852 C109.285531,17.5711403 110.275884,17.8970737 111.284244,17.8970737 C111.410289,17.8970737 111.60836,17.8779011 111.734405,17.8587286 L111.806431,16.3249243 C111.302251,16.3057518 110.780064,16.1715439 110.780064,15.5196771 L110.780064,10.0554995 C110.780064,7.92734612 109.483601,7.04540868 107.124759,7.04540868 C105.684244,7.04540868 104.585852,7.35216953 103.667524,7.75479314 L104.063666,9.26942482 C104.909968,8.96266398 105.774277,8.77093845 106.81865,8.77093845 C108.259164,8.77093845 108.943408,9.15438951 108.943408,10.592331 L108.943408,11.7235116 L106.800643,11.7618567 C105.090032,11.7810293 102.893248,12.3178607 102.893248,14.9636731 C102.893248,16.9001009 104.099678,17.9545913 105.918328,17.9545913 L105.918328,17.9545913 Z M106.404502,16.3632694 C105.450161,16.3632694 104.729904,15.8839556 104.729904,14.8294652 C104.729904,13.7558022 105.50418,13.1422805 106.854662,13.1039354 L108.943408,13.0080727 L108.943408,15.4238143 C108.241158,15.9031282 107.286817,16.3632694 106.404502,16.3632694 L106.404502,16.3632694 Z M113.607074,17.7820383 L115.497749,17.7820383 L115.497749,13.3340061 L120.125402,13.3340061 L120.125402,17.7820383 L122.016077,17.7820383 L122.016077,7.31382442 L120.125402,7.31382442 L120.125402,11.7426842 L115.497749,11.7426842 L115.497749,7.31382442 L113.607074,7.31382442 L113.607074,17.7820383 Z M132.675884,17.9545913 L133,16.4591322 C132.207717,16.2290616 131.415434,15.6155399 130.551125,14.5610494 L128.678457,12.2603431 L132.603859,7.31382442 L130.4791,7.31382442 L126.64373,12.4137235 L129.362701,15.9798184 C130.659164,17.667003 131.757556,17.8970737 132.675884,17.9545913 L132.675884,17.9545913 Z M124.681029,17.7820383 L126.571704,17.7820383 L126.571704,7.31382442 L124.681029,7.31382442 L124.681029,17.7820383 Z" id="Сбербанк" fill="#2A9F30"></path>
            </g>
            <g id="Rectangle-2">
                <use fill="#417505" fill-rule="evenodd" xlink:href="#path-1"></use>
                <rect stroke="#7ED321" stroke-width="1" x="195.5" y="217.5" width="631" height="29" rx="8"></rect>
            </g>
            <circle id="Oval" stroke="#979797" fill="#D8D8D8" cx="696" cy="173" r="15"></circle>
            <path d="M353.5,171.5 L425.562473,171.5" id="Line" stroke="#4A90E2" stroke-width="6" stroke-linecap="square"></path>
            <path d="M722.5,171.5 L787.530762,171.5" id="Line-2" stroke="#979797" stroke-width="5" stroke-linecap="square"></path>
            <g transform="translate(97.000000, 84.000000)">
                <path d="M6.99982428,0 C3.13392808,0 0,3.13457535 0,6.99369875 L0,55 L1283,55 L1283,6.99369875 C1283,3.13118559 1279.86693,0 1276.00018,0 L6.99982428,0 Z" id="background" fill="#D3D3D3"></path>
                <circle id="object" fill="#E96E4C" cx="25.5" cy="27.5" r="7.5"></circle>
                <path d="M48.5,35 C52.6421356,35 56,31.6421356 56,27.5 C56,23.3578644 52.6421356,20 48.5,20 C44.3578644,20 41,23.3578644 41,27.5 C41,31.6421356 44.3578644,35 48.5,35 Z" id="object" fill="#E6A935"></path>
                <circle id="object" fill="#85C33D" cx="71.5" cy="27.5" r="7.5"></circle>
                <rect id="search" fill="#FFFFFF" opacity="0.85" x="97" y="14" width="1172" height="27"></rect>
                <text id="https://online.sberb" font-family="Helvetica" font-size="12" font-weight="normal" style="line-height: 27px">
                    <tspan x="107" y="25" fill="#417505">https</tspan>
                    <tspan x="133.015625" y="25" fill="#9B9B9B">://</tspan>
                    <tspan x="143.017578" y="25" fill="#000000">online.sberbank.ru</tspan>
                </text>
            </g>
            <g id="Rectangle">
                <use fill-opacity="0.286288496" fill="#9B9B9B" fill-rule="evenodd" xlink:href="#path-2"></use>
                <rect stroke-opacity="0.74963202" stroke="#F5A623" stroke-width="7" x="197.5" y="266.5" width="652" height="342" rx="8"></rect>
            </g>
        </g>
    </g>
</svg>