<svg width="800px" height="800px" viewBox="0 0 485 485" version="1.1" xmlns="http://www.w3.org/2000/svg" xmlns:xlink="http://www.w3.org/1999/xlink">
    <!-- Generator: Sketch 47.1 (45422) - http://www.bohemiancoding.com/sketch -->
    <desc>Created with Sketch.</desc>
    <defs></defs>
    <g id="Page-1" stroke="none" stroke-width="1" fill="none" fill-rule="evenodd">
        <g id="happy-face" fill-rule="nonzero" fill="#000000">
            <path d="M413.729781,70.9834672 C367.953333,25.2081995 307.092324,0 242.357214,0 C177.622105,0 116.759915,25.2081995 70.9846472,70.9834672 C25.2093796,116.758735 0,177.620925 0,242.356034 C0,307.091144 25.2093796,367.956873 70.9846472,413.730961 C116.759915,459.506229 177.620925,484.714428 242.357214,484.714428 C307.093504,484.714428 367.954513,459.506229 413.729781,413.730961 C459.505049,367.956873 484.714428,307.094684 484.714428,242.356034 C484.714428,177.622105 459.505049,116.758735 413.729781,70.9834672 Z M108.304866,199.81174 C108.304866,167.277798 134.773358,140.809307 167.307299,140.809307 C199.841241,140.809307 226.309732,167.277798 226.309732,199.81174 C226.309732,209.586083 218.384526,217.51247 208.609002,217.51247 C198.832299,217.51247 190.908273,209.586083 190.908273,199.81174 C190.908273,186.799343 180.320876,176.210766 167.307299,176.210766 C154.293723,176.210766 143.706326,186.799343 143.706326,199.81174 C143.706326,209.586083 135.781119,217.51247 126.005596,217.51247 C116.230073,217.51247 108.304866,209.586083 108.304866,199.81174 Z M369.446095,268.068114 C369.206545,269.019234 363.373564,291.620706 344.83736,314.127774 C327.654672,334.995754 295.930243,359.86764 242.356034,359.86764 C188.783005,359.86764 157.057397,334.995754 139.874708,314.127774 C121.339684,291.620706 115.506703,269.016873 115.265973,268.068114 C114.379757,264.540949 115.168029,260.802555 117.404221,257.933856 C119.641594,255.065158 123.074355,253.387129 126.711265,253.387129 L358.000803,253.387129 C361.637713,253.387129 365.070474,255.065158 367.307847,257.933856 C369.545219,260.802555 370.332311,264.540949 369.446095,268.068114 Z M358.708832,217.51247 C348.934489,217.51247 341.008102,209.586083 341.008102,199.81174 C341.008102,186.799343 330.420706,176.210766 317.407129,176.210766 C304.394732,176.210766 293.807336,186.799343 293.807336,199.81174 C293.807336,209.586083 285.879769,217.51247 276.106606,217.51247 C266.329903,217.51247 258.405876,209.586083 258.405876,199.81174 C258.405876,167.277798 284.874367,140.809307 317.407129,140.809307 C349.941071,140.809307 376.409562,167.277798 376.409562,199.81174 C376.409562,209.586083 368.483175,217.51247 358.708832,217.51247 Z" id="Shape"></path>
        </g>
    </g>
</svg>