
<svg width="494px" height="422px" viewBox="0 0 494 422" version="1.1" xmlns="http://www.w3.org/2000/svg" xmlns:xlink="http://www.w3.org/1999/xlink">
    <!-- Generator: Sketch 47.1 (45422) - http://www.bohemiancoding.com/sketch -->
    <desc>Created with Sketch.</desc>
    <defs></defs>
    <g id="Page-1" stroke="none" stroke-width="1" fill="none" fill-rule="evenodd">
        <g id="detective_profile_silhouette" transform="translate(1.000000, 1.000000)" stroke="#000000" fill="#000000">
            <path d="M207.487369,0.00066254303 C206.991402,-0.00326467146 206.483388,0.0107419853 205.965386,0.0301001666 C204.58405,0.0817200993 203.152269,0.201308443 201.633586,0.442226897 C200.114895,0.683148176 198.496233,1.03522592 196.862752,1.50198135 C192.235442,2.82421389 187.22809,5.07182402 182.28683,8.567011 C174.642418,8.19435801 167.851286,10.1863215 162.559578,13.1592803 C161.150146,13.9511297 159.844827,14.8189349 158.637543,15.7203535 C155.015727,18.4245869 152.334685,21.4931959 150.647128,24.3161396 C149.522087,26.1980883 148.86164,28.0021888 148.68611,29.4677237 C148.640882,29.8453797 148.607304,30.1922133 148.627573,30.5274782 C139.862332,33.5491876 134.142867,41.5509196 133.758962,50.4273117 C134.033462,50.2620937 134.304347,50.0815313 134.578491,49.9268721 C134.597739,49.9952814 134.620582,54.1350525 134.637029,56.1087731 C134.538892,56.2264463 134.441953,56.3438549 134.34434,56.4620246 C133.874024,54.4400988 133.673187,52.410508 133.758962,50.4273117 C123.869673,56.3794965 113.777337,69.1086585 106.041295,84.7221432 C112.613783,119.102509 107.918767,148.560903 114.704895,177.450657 C84.1464292,196.188868 75.8779642,212.859512 50.7230373,237.032408 L57.0158549,236.796907 C82.0877799,215.099598 90.6672447,201.306842 121.202595,185.10444 L124.539252,183.661996 L127.963716,191.992844 C128.270547,194.72603 136.100466,207.094344 136.100475,207.094344 L135.105332,220.782839 C134.925934,226.079313 134.02611,230.844911 132.646743,235.26615 L128.783245,232.616764 L119.944032,245.628194 L119.563536,245.392693 L53.5913914,324.079461 L0,412.358466 C48.2876759,405.113891 0.794503646,346.976449 185.766103,412.358466 C229.992683,428.028627 274.219263,415.205918 318.445843,412.358466 L283.732904,359.581235 L273.400976,350.455571 L291.664782,315.100985 L275.742489,314.011793 C274.581922,308.99679 280.891995,303.984171 285.108544,298.969168 C307.539644,307.061311 320.656958,310.822856 341.597558,309.684463 C351.773345,309.055138 354.636622,309.376644 361.471154,300.912051 C364.329721,296.804056 369.017253,291.770289 367.734703,283.691041 L361.968726,266.175655 C362.387791,257.636229 366.216166,253.664646 369.578645,249.072396 L365.949299,243.420372 L370.339637,238.651477 C367.049951,232.890021 363.054083,228.493274 365.129769,212.569742 L391.38399,209.714293 C396.399596,207.166379 399.030989,207.387911 398.14511,200.883006 L371.451856,159.258206 C368.189594,154.767654 361.865072,152.502596 358.6028,146.187901 L365.129769,135.502044 L360.007708,114.98402 L359.071103,112.246321 C395.870911,118.437718 432.673659,122.853945 469.473467,131.645715 L472.722317,127.288947 C438.390942,117.434785 400.119446,111.547345 363.139483,104.357038 C352.303743,67.8018333 330.3384,39.4337328 311.538378,8.6847615 L277.410818,0.618852638 C266.650074,3.40492919 255.968492,1.32803843 245.361351,3.03273777 C241.90166,1.03787107 237.892881,-0.00556692912 233.770859,0.118413037 C231.897213,0.174767482 230.005521,0.470730052 228.121958,1.03097937 C224.835188,1.72736615 221.786257,2.42415046 218.84371,3.12105064 C218.140661,2.52489873 217.210133,1.96711275 216.063163,1.50198135 C213.880378,0.616800954 210.959138,0.0281521024 207.487369,0.00066254303 Z M206.492226,0.913228874 C209.798083,0.945420917 212.646187,1.50412346 214.746061,2.35567243 C215.639465,2.71797092 216.370575,3.14895751 216.970499,3.59205262 C210.402662,5.18606932 204.573039,6.7682375 199.467686,8.36094764 C196.802583,6.73008916 190.951916,6.72933556 184.628343,8.59644863 C184.491431,8.63687379 184.354163,8.67255219 184.218579,8.71419912 L183.808814,8.6847615 C183.706787,8.67570319 183.588584,8.69297295 183.486856,8.6847615 C188.082756,5.47602096 192.551546,3.40771563 196.745676,2.23792194 C198.179657,1.8379659 199.599146,1.5707401 200.9604,1.35479323 C202.376802,1.13009608 203.74995,0.990117121 205.058049,0.942666498 C205.548586,0.924876753 206.019961,0.908630011 206.492226,0.913228874 Z M179.506283,9.45013971 C180.015402,9.44553991 180.536599,9.43264858 181.057535,9.45013971 L180.677039,9.74451595 L181.20388,9.77395357 C175.016962,12.271954 170.931447,15.959988 171.72075,18.6641159 C171.743745,18.7428938 171.774735,18.8252655 171.808557,18.8996169 L170.871951,19.7827456 C164.017255,23.1394326 157.755795,26.4947677 150.266632,29.8504129 C150.265602,29.6418136 150.268646,29.4303243 150.295901,29.2027851 C150.459339,27.8381812 151.116077,26.1854805 152.198381,24.3750149 C153.821836,21.6593079 156.409752,18.6685753 159.837569,16.1030426 C160.98019,15.2478707 162.240233,14.4276585 163.554721,13.6891575 C165.449708,12.6245188 167.480672,11.6891616 169.701195,10.9808961 C172.672206,10.0332552 175.942448,9.48233741 179.506283,9.45013971 Z" id="path2506" stroke-width="0.9393357"></path>
            <path d="M365.625265,238.083832 L364.599659,244.640679 C373.343363,249.372829 382.483065,252.929159 390.386739,260.20066 C395.11081,268.205849 399.669331,276.395058 394.542571,296.122505 C391.952058,320.636197 393.149943,341.331002 399.713658,356.627426 C407.394279,375.274058 423.106488,384.749372 440.74403,386.643555 C453.486957,390.907594 470.510383,374.199708 479.463552,347.134784 C480.183644,344.957999 480.823948,342.802769 481.38866,340.661364 C484.055966,340.377328 486.443524,338.55299 487.348347,335.81773 L491.634373,322.861311 C492.869942,319.126247 490.873558,315.116159 487.159844,313.873474 C473.4137,306.969069 459.668852,302.370948 445.925298,300.075582 C442.211593,298.832907 438.224428,300.840773 436.98885,304.575847 L432.702824,317.532257 C431.672133,320.647984 432.882938,323.968569 435.470701,325.700363 C434.700211,327.643319 433.982691,329.638029 433.304234,331.688967 C431.090221,338.381787 429.615986,344.975987 428.836413,351.17376 C403.633488,326.37941 415.584841,288.12897 397.596501,252.232059 L394.135791,248.647464 L365.625265,238.083832 Z" id="path2423" stroke-width="0.79563186"></path>
        </g>
        <text id="accessibility" transform="translate(232.915960, 197.083463) rotate(-51.000000) translate(-232.915960, -197.083463) " font-family="Helvetica-Bold, Helvetica" font-size="48" font-weight="bold" fill="#FFFFFF">
            <tspan x="90.1581471" y="215.763716">accessibility</tspan>
        </text>
        <text id="aXe" font-family="Helvetica-Light, Helvetica" font-size="72" font-weight="300" fill="#FFFFFF">
            <tspan x="134.472" y="144">aXe</tspan>
        </text>
        <text id="contrast" transform="translate(166.426968, 366.691540) rotate(15.000000) translate(-166.426968, -366.691540) " font-family="LucidaGrande, Lucida Grande" font-size="56" font-weight="normal" fill="#FFFFFF">
            <tspan x="55.370327" y="382.97521">contrast</tspan>
        </text>
        <text id="Headings" font-family="LucidaGrande, Lucida Grande" font-size="32" font-weight="normal" fill="#FFFFFF">
            <tspan x="215.33826" y="285">headings</tspan>
        </text>
        <text id="keyboard-access" transform="translate(260.236557, 47.316247) rotate(15.000000) translate(-260.236557, -47.316247) " font-family="LucidaGrande-Bold, Lucida Grande" font-size="24" font-weight="bold" fill="#FFFFFF">
            <tspan x="202.539291" y="42.3162468">keyboard</tspan>
            <tspan x="219.80687" y="70.3162468">access</tspan>
        </text>
        <text id="visual-focus" transform="translate(310.078125, 206.367188) rotate(332.000000) translate(-310.078125, -206.367188) " font-family="Helvetica-Light, Helvetica" font-size="24" font-weight="300" fill="#FFFFFF">
            <tspan x="246.718125" y="214.867188">visual focus</tspan>
        </text>
        <text id="semantics" transform="translate(166.843551, 208.604812) rotate(303.000000) translate(-166.843551, -208.604812) " font-family="Helvetica" font-size="24" font-weight="normal" fill="#FFFFFF">
            <tspan x="112.825973" y="217.104812">semantics</tspan>
        </text>
    </g>
</svg>