<?xml version="1.0" encoding="utf-8"?>
<!-- Svg Vector Icons : http://www.onlinewebfonts.com/icon -->
<!DOCTYPE svg PUBLIC "-//W3C//DTD SVG 1.1//EN" "http://www.w3.org/Graphics/SVG/1.1/DTD/svg11.dtd">
<svg version="1.1" xmlns="http://www.w3.org/2000/svg" xmlns:xlink="http://www.w3.org/1999/xlink" x="0px" y="0px" viewBox="0 0 1000 1000" enable-background="new 0 0 1000 1000" xml:space="preserve">
<metadata> Svg Vector Icons : http://www.onlinewebfonts.com/icon </metadata>
<g><path d="M414.3,377.5c0-37.2-30.2-67.4-67.4-67.4c-37.2,0-67.4,30.2-67.4,67.4c0,37.2,30.2,67.4,67.4,67.4C384.1,444.9,414.3,414.7,414.3,377.5L414.3,377.5z M653.1,310.1c-37.2,0-67.4,30.2-67.4,67.4c0,37.2,30.2,67.4,67.4,67.4c37.2,0,67.4-30.2,67.4-67.4C720.5,340.3,690.3,310.1,653.1,310.1z M500,10C229.4,10,10,229.4,10,500c0,270.6,219.4,490,490,490c270.6,0,490-219.4,490-490C990,229.4,770.6,10,500,10z M500,900.9C278.6,900.9,99.1,721.4,99.1,500C99.1,278.6,278.6,99.1,500,99.1c221.4,0,400.9,179.5,400.9,400.9C900.9,721.4,721.4,900.9,500,900.9z M640.9,659.3c0,0-60.2-42.9-141.4-42.9c-78.4,0-140.3,42.9-140.3,42.9c-17.7,12.6-32.5,26.6-36.8,36.8s-2.8,28.7,6.1,36.8c8.9,8.1,19.7,11.6,33.7,6.1c14-5.5,52.9-49,137.3-49c80.5,0,141.4,49,141.4,49c13.1,6.3,24,7.1,36.8-6.1c13.9-14.4,5.8-35.5,0-42.9C670.8,681.2,658.5,671.6,640.9,659.3L640.9,659.3z"/></g>
</svg>