<?xml version="1.0" encoding="utf-8"?>
<!-- Generator: Adobe Illustrator 17.0.2, SVG Export Plug-In . SVG Version: 6.00 Build 0)  -->
<!DOCTYPE svg PUBLIC "-//W3C//DTD SVG 1.1//EN" "http://www.w3.org/Graphics/SVG/1.1/DTD/svg11.dtd">
<svg version="1.1" id="Layer_1" xmlns="http://www.w3.org/2000/svg" xmlns:xlink="http://www.w3.org/1999/xlink" x="0px" y="0px"
	 width="487.23px" height="251.263px" viewBox="0 0 487.23 251.263" enable-background="new 0 0 487.23 251.263"
	 xml:space="preserve">
<g>
	<path fill="#F4F4F4" d="M463.637,249.263c0,0,11.593-33.343-15.458-59.747s-64.659-24.671-72.692-58.131
		c-8.033-33.461-17.251-54.812-39.366-61.039c-30.112-8.478-59.452,33.129-73.91,22.526c-14.459-10.603-30.75-36.543-60.928-33.094
		c-28.735,3.284-42.841,23.346-58.728,52.072c-15.887,28.727-41.524,40.726-78.881,38.987
		c-37.357-1.739-50.443,19.753-50.443,45.495s0,52.931,0,52.931H463.637z"/>
	<g>
		<path fill="#E9E9E9" stroke="#0081F7" stroke-miterlimit="10" d="M263.613,14.855c0,0-4.543,0.759-9.217,2.095
			c-3.277,0.936-7.719,1.119-10.032,1.145c-2.312-0.026-6.708-0.209-9.985-1.145c-4.674-1.335-8.968-2.095-8.968-2.095
			s-9.681,4.884-9.681,11.563c0,6.68,0,54.974,0,54.974c0,2.152,0.769,4.216,2.291,5.737l14.689,14.491
			c1.521,1.52,3.54,2.142,5.69,2.142h4.262h3.218h4.262c2.15,0,4.212-0.622,5.733-2.142l15.105-14.607
			c1.522-1.521,2.75-3.469,2.75-5.621c0,0,0-48.294,0-54.974C273.73,19.739,263.613,14.855,263.613,14.855z"/>
		<path fill="none" stroke="#0081F7" stroke-miterlimit="10" d="M211.1,51.135c0,0-4.213-15.037-2.484-24.778
			s9.372-19.94,15.726-22.575c8.583-3.559,28.258-4.404,37.129-1.64c7.113,2.217,13.945,10.566,17.559,24.077
			c3.614,13.512-1.492,24.915-1.492,24.915"/>
		<rect x="221.292" y="45.377" fill="#0081F7" width="17.387" height="4.033"/>
		<rect x="248.696" y="45.377" fill="#0081F7" width="17.387" height="4.033"/>
		<polyline fill="none" stroke="#0081F7" stroke-miterlimit="10" points="235.904,83.487 238.703,84.744 249.072,84.744 
			251.615,83.487 		"/>
		<line fill="none" stroke="#0081F7" stroke-miterlimit="10" x1="239.949" y1="88.436" x2="247.53" y2="88.436"/>
		<path fill="none" stroke="#0081F7" stroke-miterlimit="10" d="M215.086,50.965h-3.681c-1.785,0-3.232,1.447-3.232,3.232v7.369
			c0,0.857,0.341,1.679,0.947,2.286l6.019,6.019"/>
		<path fill="none" stroke="#0081F7" stroke-miterlimit="10" d="M215.692,55.311h-1.58c-0.766,0-1.388,0.621-1.388,1.388v3.164
			c0,0.368,0.146,0.721,0.406,0.981l2.584,2.584"/>
		<path fill="none" stroke="#0081F7" stroke-miterlimit="10" d="M274.16,50.965h3.681c1.785,0,3.232,1.447,3.232,3.232v7.369
			c0,0.857-0.341,1.679-0.947,2.286l-6.019,6.019"/>
		<path fill="none" stroke="#0081F7" stroke-miterlimit="10" d="M273.554,55.311h1.58c0.766,0,1.388,0.621,1.388,1.388v3.164
			c0,0.368-0.146,0.721-0.406,0.981l-2.584,2.584"/>
		<path fill="none" stroke="#0081F7" stroke-miterlimit="10" d="M241.455,69.137l-0.56,4.513c-0.162,1.303,0.854,2.453,2.167,2.453
			h3.48c1.316,0,2.333-1.155,2.166-2.461l-0.576-4.505"/>
		<path fill="#0092FF" stroke="#0081F7" stroke-miterlimit="10" d="M238.704,62.552h-17.437c-0.957,0-1.762-0.715-1.876-1.665
			l-0.806-6.762c-0.134-1.124,0.744-2.113,1.876-2.113h19.05c1.132,0,2.01,0.989,1.876,2.113l-0.806,6.762
			C240.467,61.836,239.661,62.552,238.704,62.552z"/>
		<path fill="#0092FF" stroke="#0081F7" stroke-miterlimit="10" d="M266.109,62.552h-17.437c-0.957,0-1.762-0.715-1.876-1.665
			l-0.806-6.762c-0.134-1.124,0.744-2.113,1.876-2.113h19.05c1.132,0,2.01,0.989,1.876,2.113l-0.806,6.762
			C267.871,61.836,267.065,62.552,266.109,62.552z"/>
		<line fill="none" stroke="#0081F7" stroke-miterlimit="10" x1="241.4" y1="55.311" x2="245.976" y2="55.311"/>
		<polyline fill="none" stroke="#0081F7" stroke-miterlimit="10" points="215.661,72.385 226.139,84.446 232.184,79.763 
			255.021,79.763 260.824,84.245 273.532,69.935 		"/>
		<polyline fill="none" stroke="#0081F7" stroke-miterlimit="10" points="233.73,103.263 233.73,111.099 242.747,122.544 
			252.73,111.529 252.73,104.263 		"/>
		<path fill="none" stroke="#0081F7" stroke-miterlimit="10" d="M232.506,111.529l-8.06,5.481c0,0,0.645,5.534,3.063,10.747
			c2.418,5.212,4.997,7.684,4.997,7.684l9.833-11.956"/>
		<path fill="none" stroke="#0081F7" stroke-miterlimit="10" d="M222.673,118.084l-13.863,3.654c0,0-4.729,1.182-6.878,6.77
			c-2.149,5.588-3.869,9.672-3.869,9.672"/>
		<path fill="none" stroke="#0081F7" stroke-miterlimit="10" d="M254.322,111.529l8.06,5.481c0,0-0.645,5.534-3.063,10.747
			c-2.418,5.212-4.997,7.684-4.997,7.684l-9.833-11.956"/>
		<path fill="none" stroke="#0081F7" stroke-miterlimit="10" d="M263.833,118.084l13.863,3.654c0,0,4.728,1.182,6.878,6.77
			c2.149,5.588,3.869,9.672,3.869,9.672"/>
		
			<line fill="none" stroke="#0081F7" stroke-width="0.5" stroke-miterlimit="10" x1="229.014" y1="37.915" x2="258.245" y2="37.915"/>
		
			<line fill="none" stroke="#0081F7" stroke-width="0.5" stroke-miterlimit="10" x1="229.014" y1="33.939" x2="258.245" y2="33.939"/>
		
			<line fill="none" stroke="#0081F7" stroke-width="0.5" stroke-miterlimit="10" x1="229.014" y1="30.392" x2="258.245" y2="30.392"/>
		
			<line fill="none" stroke="#0081F7" stroke-width="0.5" stroke-miterlimit="10" x1="229.014" y1="26.524" x2="258.245" y2="26.524"/>
	</g>
	<g>
		<g>
			<path fill="#FFFFFF" stroke="#CECECE" stroke-width="2" stroke-miterlimit="10" d="M333.848,245.359H155.907
				c-2.566,0-4.647-2.08-4.647-4.647V133.457c0-2.566,2.08-4.647,4.647-4.647h177.941c2.566,0,4.647,2.08,4.647,4.647v107.255
				C338.495,243.278,336.414,245.359,333.848,245.359z"/>
			
				<rect x="169.773" y="210.226" fill="none" stroke="#CECECE" stroke-width="2" stroke-miterlimit="10" width="46.283" height="16.62"/>
			<circle fill="none" stroke="#CECECE" stroke-width="2" stroke-miterlimit="10" cx="244.877" cy="187.085" r="16.199"/>
		</g>
		<line fill="none" stroke="#CECECE" stroke-width="2" stroke-miterlimit="10" x1="0" y1="250.263" x2="487.23" y2="250.263"/>
		<path fill="#FFFFFF" stroke="#CECECE" stroke-width="2" stroke-miterlimit="10" d="M419.821,219.263h-4.365h-3.3H376.23v5.356
			c0,9.172,9.402,16.644,18.574,16.644h4.258c9.172,0,15.168-7.473,15.168-16.644v-2.356h5.484l2.342,8h2.174v-6.283v-4.717H419.821
			z"/>
		<path fill="none" stroke="#CECECE" stroke-width="2" stroke-miterlimit="10" d="M383.378,225.328c0,0-0.568,6.955,6.387,10.078"/>
		<path fill="#FFFFFF" stroke="#CECECE" stroke-miterlimit="10" d="M421.56,240.763h-47.976c0,2,6.146,1.793,16.146,2.177v2.823h13
			v-2.823C412.73,242.556,421.56,242.763,421.56,240.763z"/>
		<line fill="none" stroke="#CECECE" stroke-width="2" stroke-miterlimit="10" x1="390.23" y1="214.263" x2="390.23" y2="206.263"/>
		<line fill="none" stroke="#CECECE" stroke-width="2" stroke-miterlimit="10" x1="390.23" y1="202.263" x2="390.23" y2="200.263"/>
		<line fill="none" stroke="#CECECE" stroke-width="2" stroke-miterlimit="10" x1="396.23" y1="214.263" x2="396.23" y2="204.263"/>
		<line fill="none" stroke="#CECECE" stroke-width="2" stroke-miterlimit="10" x1="396.23" y1="199.263" x2="396.23" y2="192.263"/>
		<line fill="none" stroke="#CECECE" stroke-width="2" stroke-miterlimit="10" x1="404.23" y1="214.263" x2="404.23" y2="209.263"/>
		<line fill="none" stroke="#CECECE" stroke-width="2" stroke-miterlimit="10" x1="404.23" y1="202.263" x2="404.23" y2="197.263"/>
		<path fill="#FFFFFF" stroke="#CECECE" stroke-miterlimit="10" d="M37.496,250.263H8.73v-6.222c0-5.361,4.346-9.706,9.706-9.706
			h9.354c5.361,0,9.706,4.346,9.706,9.706V250.263z"/>
		<path fill="#FFFFFF" stroke="#CECECE" stroke-miterlimit="10" d="M99.051,250.263H70.285v-6.222c0-5.361,4.346-9.706,9.706-9.706
			h9.354c5.361,0,9.706,4.346,9.706,9.706V250.263z"/>
		<path fill="#FFFFFF" stroke="#CECECE" stroke-miterlimit="10" d="M84.668,250.263H20.379v-33.095
			c0-12.446,10.089-22.535,22.535-22.535h19.218c12.446,0,22.535,10.089,22.535,22.535V250.263z"/>
		<polyline fill="none" stroke="#CECECE" stroke-miterlimit="10" points="22.162,212.582 15.981,190.116 38.447,196.298 		"/>
		<polyline fill="none" stroke="#CECECE" stroke-miterlimit="10" points="82.284,212.582 88.465,190.116 65.999,196.298 		"/>
		<path fill="none" stroke="#CECECE" stroke-miterlimit="10" d="M57.211,234.335H46.31c-1.979,0-3.583-1.604-3.583-3.583v-3.056
			c0-1.979,1.604-3.583,3.583-3.583h10.901c1.979,0,3.583,1.604,3.583,3.583v3.056C60.794,232.731,59.19,234.335,57.211,234.335z"/>
		<circle fill="none" stroke="#CECECE" stroke-miterlimit="10" cx="34.822" cy="216.98" r="3.625"/>
		<circle fill="none" stroke="#CECECE" stroke-miterlimit="10" cx="68.894" cy="216.98" r="3.625"/>
		<line fill="none" stroke="#CECECE" stroke-miterlimit="10" x1="68.104" y1="227.797" x2="92.175" y2="219.061"/>
		<line fill="none" stroke="#CECECE" stroke-miterlimit="10" x1="68.894" y1="231.363" x2="80.14" y2="231.185"/>
		<line fill="none" stroke="#CECECE" stroke-miterlimit="10" x1="68.894" y1="235.286" x2="93.78" y2="240.813"/>
		<line fill="none" stroke="#CECECE" stroke-miterlimit="10" x1="34.822" y1="225.658" x2="15.149" y2="220.606"/>
		<line fill="none" stroke="#CECECE" stroke-miterlimit="10" x1="34.822" y1="227.976" x2="19.607" y2="229.224"/>
		<line fill="none" stroke="#CECECE" stroke-miterlimit="10" x1="36.189" y1="231.274" x2="18.18" y2="236.534"/>
		<line fill="none" stroke="#CECECE" stroke-miterlimit="10" x1="46.887" y1="242.299" x2="57.941" y2="242.299"/>
	</g>
</g>
</svg>
