<?xml version="1.0" encoding="utf-8"?>
<!-- Generator: Adobe Illustrator 17.0.2, SVG Export Plug-In . SVG Version: 6.00 Build 0)  -->
<!DOCTYPE svg PUBLIC "-//W3C//DTD SVG 1.1//EN" "http://www.w3.org/Graphics/SVG/1.1/DTD/svg11.dtd">
<svg version="1.1" id="Layer_1" xmlns="http://www.w3.org/2000/svg" xmlns:xlink="http://www.w3.org/1999/xlink" x="0px" y="0px"
	 width="524.626px" height="253.926px" viewBox="0 0 524.626 253.926" enable-background="new 0 0 524.626 253.926"
	 xml:space="preserve">
<g>
	<path fill="#F4F4F4" d="M501.032,252.926c0,0,11.593-33.343-15.458-59.747c-27.051-26.403-64.659-24.671-72.692-58.131
		c-8.033-33.461-17.251-54.812-39.366-61.039c-30.112-8.478-59.451,33.129-73.91,22.526s-30.75-36.543-60.928-33.094
		c-28.735,3.284-42.841,23.346-58.728,52.072s-41.524,40.726-78.881,38.987c-37.357-1.739-50.443,19.753-50.443,45.495
		s0,52.931,0,52.931H501.032z"/>
	<g>
		<path fill="#FFFFFF" stroke="#0081F7" stroke-miterlimit="10" d="M301.971,31.874c0,0-4.56,3.353-9.254,4.694
			c-3.291,0.94-7.751,1.124-10.074,1.15c-2.322-0.026-6.737-0.21-10.027-1.15c-4.694-1.341-8.887-4.694-8.887-4.694
			s-9.603,7.495-9.603,14.203c0,6.709,0,47.438,0,47.438c0,2.161,0.653,4.234,2.182,5.761L271,114.052
			c1.527,1.526,3.495,2.374,5.655,2.374h4.28h3.232h4.28c2.159,0,4.23-0.848,5.758-2.374l15.165-14.78
			c1.529-1.528,2.757-3.596,2.757-5.757c0,0,0-40.73,0-47.438C312.126,39.368,301.971,31.874,301.971,31.874z"/>
		<path fill="none" stroke="#0081F7" stroke-miterlimit="10" d="M249.238,63.127c0,0-4.231-15.101-2.495-24.884
			c1.736-9.782,15.793-22.671,15.793-22.671l-1.57,6.809c0,0,4.64-4.642,5.705-6.062s3.456-5.707,3.456-5.707v6.272
			c0,0,5.482-3.432,6.547-8.047s0.788-5.838,0.788-5.838l8.855,14.989c0,0,0.601-3.313,0.523-5.443s-0.981-4.733-0.981-4.733
			s5.13,2.682,8.444,5.996s7.022,7.534,7.022,7.534l-1.498-7.416c0,0,14.003,10.611,17.632,24.18
			c3.629,13.569-1.499,25.022-1.499,25.022"/>
		<rect x="260.552" y="58.802" fill="#0081F7" width="17.461" height="4.05"/>
		<rect x="286.428" y="58.802" fill="#0081F7" width="17.461" height="4.05"/>
		<line fill="none" stroke="#0081F7" stroke-miterlimit="10" x1="263.602" y1="67.795" x2="275.015" y2="67.795"/>
		<path fill="#0081F7" d="M269.724,70.714h-0.83c-0.874,0-1.583-0.709-1.583-1.583v-1.336h3.997v1.336
			C271.307,70.005,270.598,70.714,269.724,70.714z"/>
		<line fill="none" stroke="#0081F7" stroke-miterlimit="10" x1="289.452" y1="67.795" x2="300.865" y2="67.795"/>
		<path fill="#0081F7" d="M297.157,67.795v0.92c0,1.104-0.895,1.999-1.999,1.999l0,0c-1.104,0-1.999-0.895-1.999-1.999v-0.92"/>
		<polyline fill="none" stroke="#0081F7" stroke-miterlimit="10" points="274.147,95.617 276.959,96.88 287.372,96.88 
			289.926,95.617 		"/>
		<line fill="none" stroke="#0081F7" stroke-miterlimit="10" x1="278.21" y1="100.588" x2="285.823" y2="100.588"/>
		<path fill="none" stroke="#0081F7" stroke-miterlimit="10" d="M253.241,62.957h-3.696c-1.793,0-3.246,1.453-3.246,3.246v7.401
			c0,0.861,0.342,1.687,0.951,2.295l6.044,6.044"/>
		<path fill="none" stroke="#0081F7" stroke-miterlimit="10" d="M253.85,67.322h-1.587c-0.77,0-1.394,0.624-1.394,1.394v3.178
			c0,0.37,0.147,0.724,0.408,0.986l2.595,2.595"/>
		<path fill="none" stroke="#0081F7" stroke-miterlimit="10" d="M312.567,62.957h3.696c1.793,0,3.246,1.453,3.246,3.246v7.401
			c0,0.861-0.342,1.687-0.951,2.295l-6.044,6.044"/>
		<path fill="none" stroke="#0081F7" stroke-miterlimit="10" d="M311.959,67.322h1.587c0.77,0,1.394,0.624,1.394,1.394v3.178
			c0,0.37-0.147,0.724-0.408,0.986l-2.595,2.595"/>
		<path fill="none" stroke="#0081F7" stroke-miterlimit="10" d="M279.722,81.207l-0.562,4.532c-0.162,1.308,0.858,2.463,2.176,2.463
			h3.494c1.322,0,2.343-1.16,2.175-2.471l-0.578-4.524"/>
		<circle fill="none" stroke="#0081F7" stroke-miterlimit="10" cx="269.089" cy="80.382" r="0.7"/>
		<circle fill="none" stroke="#0081F7" stroke-miterlimit="10" cx="268.967" cy="75.816" r="0.342"/>
		<circle fill="none" stroke="#0081F7" stroke-miterlimit="10" cx="265.607" cy="78.163" r="0.335"/>
		<circle fill="none" stroke="#0081F7" stroke-miterlimit="10" cx="264.355" cy="82.63" r="0.345"/>
		<circle fill="none" stroke="#0081F7" stroke-miterlimit="10" cx="269.013" cy="85.329" r="0.625"/>
		<circle fill="none" stroke="#0081F7" stroke-miterlimit="10" cx="272.787" cy="82.541" r="0.256"/>
		<circle fill="none" stroke="#0081F7" stroke-miterlimit="10" cx="273.053" cy="77.897" r="0.266"/>
		<circle fill="none" stroke="#0081F7" stroke-miterlimit="10" cx="295.725" cy="80.117" r="0.435"/>
		<circle fill="none" stroke="#0081F7" stroke-miterlimit="10" cx="291.454" cy="77.62" r="0.385"/>
		<circle fill="none" stroke="#0081F7" stroke-miterlimit="10" cx="296.228" cy="75.096" r="0.503"/>
		<circle fill="none" stroke="#0081F7" stroke-miterlimit="10" cx="299.215" cy="78.163" r="0.335"/>
		<circle fill="none" stroke="#0081F7" stroke-miterlimit="10" cx="298.002" cy="83.616" r="0.187"/>
		<circle fill="none" stroke="#0081F7" stroke-miterlimit="10" cx="294.587" cy="84.5" r="0.204"/>
		<circle fill="none" stroke="#0081F7" stroke-miterlimit="10" cx="290.793" cy="81.101" r="0.276"/>
		<rect x="273.753" y="115.971" fill="#FFFFFF" stroke="#0081F7" stroke-miterlimit="10" width="17.536" height="26.98"/>
		<rect x="273.753" y="142.951" fill="none" stroke="#0081F7" stroke-miterlimit="10" width="17.536" height="4.892"/>
		<rect x="273.753" y="147.843" fill="none" stroke="#0081F7" stroke-miterlimit="10" width="17.536" height="13.254"/>
		<polygon fill="none" stroke="#0081F7" stroke-miterlimit="10" points="264.126,127.963 264.126,144.372 273.126,135.562 
			273.126,120.389 		"/>
		<polygon fill="none" stroke="#0081F7" stroke-miterlimit="10" points="300.126,127.963 300.126,144.372 292.126,135.562 
			292.126,120.389 		"/>
		<path fill="none" stroke="#0081F7" stroke-miterlimit="10" d="M263.602,129.12h-17.468c-5.312,0-9.618,4.306-9.618,9.618v13.839"
			/>
		<path fill="none" stroke="#0081F7" stroke-miterlimit="10" d="M300.576,129.12h17.468c5.312,0,9.618,4.306,9.618,9.618v13.839"/>
		<path fill="none" stroke="#0081F7" stroke-miterlimit="10" d="M276.96,74.593h-17.511c-0.961,0-1.77-0.718-1.884-1.672
			l-0.81-6.791c-0.135-1.129,0.747-2.122,1.884-2.122h19.131c1.137,0,2.018,0.993,1.884,2.122l-0.81,6.791
			C278.73,73.875,277.921,74.593,276.96,74.593z"/>
		<path fill="none" stroke="#0081F7" stroke-miterlimit="10" d="M304.481,74.593H286.97c-0.961,0-1.77-0.718-1.884-1.672
			l-0.81-6.791c-0.135-1.129,0.747-2.122,1.884-2.122h19.131c1.137,0,2.018,0.993,1.884,2.122l-0.81,6.791
			C306.251,73.875,305.442,74.593,304.481,74.593z"/>
		<line fill="none" stroke="#0081F7" stroke-miterlimit="10" x1="279.667" y1="67.322" x2="284.263" y2="67.322"/>
	</g>
	<g>
		<path fill="#FFFFFF" stroke="#CECECE" stroke-width="2" stroke-miterlimit="10" d="M371.244,248.022H193.303
			c-2.566,0-4.647-2.08-4.647-4.647V136.12c0-2.566,2.08-4.647,4.647-4.647h177.941c2.566,0,4.647,2.08,4.647,4.647v107.255
			C375.89,245.941,373.81,248.022,371.244,248.022z"/>
		
			<rect x="207.169" y="212.889" fill="none" stroke="#CECECE" stroke-width="2" stroke-miterlimit="10" width="46.283" height="16.62"/>
		<circle fill="none" stroke="#CECECE" stroke-width="2" stroke-miterlimit="10" cx="282.273" cy="189.748" r="16.199"/>
	</g>
	<g>
		<path fill="#FFFFFF" stroke="#CECECE" stroke-width="2" stroke-miterlimit="10" d="M444.217,222.926h-4.365h-3.3h-35.926v5.356
			c0,9.172,9.402,16.644,18.574,16.644h4.258c9.172,0,15.168-7.473,15.168-16.644v-2.356h5.484l2.342,8h2.174v-6.283v-4.717H444.217
			z"/>
		<path fill="none" stroke="#CECECE" stroke-width="2" stroke-miterlimit="10" d="M407.774,228.991c0,0-0.568,6.955,6.387,10.078"/>
		<path fill="#FFFFFF" stroke="#CECECE" stroke-miterlimit="10" d="M445.956,244.426H397.98c0,2,6.146,1.793,16.146,2.177v2.823h13
			v-2.823C437.126,246.219,445.956,246.426,445.956,244.426z"/>
		
			<line fill="none" stroke="#CECECE" stroke-width="2" stroke-miterlimit="10" x1="414.626" y1="217.926" x2="414.626" y2="209.926"/>
		
			<line fill="none" stroke="#CECECE" stroke-width="2" stroke-miterlimit="10" x1="414.626" y1="205.926" x2="414.626" y2="203.926"/>
		
			<line fill="none" stroke="#CECECE" stroke-width="2" stroke-miterlimit="10" x1="420.626" y1="217.926" x2="420.626" y2="207.926"/>
		
			<line fill="none" stroke="#CECECE" stroke-width="2" stroke-miterlimit="10" x1="420.626" y1="202.926" x2="420.626" y2="195.926"/>
		
			<line fill="none" stroke="#CECECE" stroke-width="2" stroke-miterlimit="10" x1="428.626" y1="217.926" x2="428.626" y2="212.926"/>
		
			<line fill="none" stroke="#CECECE" stroke-width="2" stroke-miterlimit="10" x1="428.626" y1="205.926" x2="428.626" y2="200.926"/>
		<path fill="#FFFFFF" stroke="#CECECE" stroke-miterlimit="10" d="M131.186,248.022H73.618c-1.705,0-3.088-1.382-3.088-3.088
			v-25.525c0-1.705,1.382-3.088,3.088-3.088h57.568c1.705,0,3.088,1.383,3.088,3.088v25.525
			C134.274,246.639,132.891,248.022,131.186,248.022z"/>
		<rect x="77.472" y="216.321" fill="#FFFFFF" stroke="#CECECE" stroke-miterlimit="10" width="46.493" height="31.701"/>
		<path fill="none" stroke="#CECECE" stroke-miterlimit="10" d="M134.589,232.099L134.589,232.099
			c5.926,0,10.729-4.804,10.729-10.729v-6.311c0-5.926,4.804-10.729,10.729-10.729h0c5.926,0,10.729,4.804,10.729,10.729v7.574
			c0,5.926,4.804,10.729,10.729,10.729h6.311"/>
		<rect x="183.817" y="229.509" fill="#FFFFFF" stroke="#CECECE" stroke-miterlimit="10" width="4.839" height="7.376"/>
		
			<line fill="none" stroke="#CECECE" stroke-width="2" stroke-miterlimit="10" x1="37.396" y1="252.926" x2="524.626" y2="252.926"/>
	</g>
	<g>
		<circle fill="#FFFFFF" stroke="#CECECE" stroke-width="2" stroke-miterlimit="10" cx="55.733" cy="87.659" r="25.022"/>
		<line fill="none" stroke="#CECECE" stroke-width="2" stroke-miterlimit="10" x1="55.733" y1="53.135" x2="55.733" y2="32.943"/>
		<line fill="none" stroke="#CECECE" stroke-width="2" stroke-miterlimit="10" x1="55.733" y1="122.347" x2="55.733" y2="144.41"/>
		<line fill="none" stroke="#CECECE" stroke-width="2" stroke-miterlimit="10" x1="91.274" y1="88.676" x2="111.466" y2="88.676"/>
		<line fill="none" stroke="#CECECE" stroke-width="2" stroke-miterlimit="10" x1="22.062" y1="88.676" x2="0" y2="88.676"/>
		<path fill="none" stroke="#CECECE" stroke-width="2" stroke-miterlimit="10" d="M80.865,113.808"/>
		<line fill="none" stroke="#CECECE" stroke-width="2" stroke-miterlimit="10" x1="31.924" y1="64.868" x2="16.324" y2="49.267"/>
		<line fill="none" stroke="#CECECE" stroke-width="2" stroke-miterlimit="10" x1="30.602" y1="113.808" x2="16.324" y2="128.086"/>
		<line fill="none" stroke="#CECECE" stroke-width="2" stroke-miterlimit="10" x1="79.542" y1="64.868" x2="95.143" y2="49.267"/>
	</g>
</g>
</svg>
