<?xml version="1.0" encoding="utf-8"?>
<!-- Generator: Adobe Illustrator 17.0.2, SVG Export Plug-In . SVG Version: 6.00 Build 0)  -->
<!DOCTYPE svg PUBLIC "-//W3C//DTD SVG 1.1//EN" "http://www.w3.org/Graphics/SVG/1.1/DTD/svg11.dtd">
<svg version="1.1" id="Layer_1" xmlns="http://www.w3.org/2000/svg" xmlns:xlink="http://www.w3.org/1999/xlink" x="0px" y="0px"
	 width="487.23px" height="273.547px" viewBox="0 0 487.23 273.547" enable-background="new 0 0 487.23 273.547"
	 xml:space="preserve">
<g>
	<path fill="#F4F4F4" d="M468.637,271.547c0,0,11.593-33.343-15.458-59.747s-64.659-24.671-72.692-58.131
		c-8.033-33.461-17.251-54.812-39.366-61.039c-30.112-8.478-59.452,33.129-73.91,22.526c-14.459-10.603-30.75-36.543-60.928-33.094
		c-28.735,3.284-42.841,23.346-58.728,52.072s-41.524,40.726-78.881,38.987c-37.357-1.739-50.443,19.753-50.443,45.495
		s0,52.931,0,52.931H468.637z"/>
	<g>
		<path fill="#FFFFFF" stroke="#0081F7" stroke-miterlimit="10" d="M215.73,71.547c0,0,0,13.709,0,22.443s4.609,17.592,13.528,26.93
			c9.102,9.529,13.814,10.415,18.138,10.495c4.325-0.08,8.862-0.966,17.964-10.495c8.919-9.338,13.369-18.196,13.369-26.93
			s0-22.443,0-22.443"/>
		<path fill="none" stroke="#0081F7" stroke-miterlimit="10" d="M288.503,62.626c0-15.434-19.59-28.019-41.212-28.681
			c-21.623,0.662-41.227,13.247-41.227,28.681c0,7.162,9.667,18.741,9.667,18.741V71.062c0,0,11.473-0.921,18.829-5.496
			c5.261-3.272,9.955-9.752,12.838-10.891c2.883,1.139,7.403,7.619,12.663,10.891c7.355,4.575,18.67,5.496,18.67,5.496v10.305
			C278.73,81.368,288.503,69.788,288.503,62.626z"/>
		<path fill="none" stroke="#0081F7" stroke-miterlimit="10" d="M247.381,33.945c6.105,0.187,12.054,1.325,17.451,3.209
			c0.649-1.059,1.008-2.187,1.008-3.36c0-6.033-9.273-10.923-20.712-10.923c-11.439,0-20.712,4.89-20.712,10.923
			c0,1.688,0.747,3.28,2.043,4.706C232.72,35.815,239.935,34.173,247.381,33.945z"/>
		<path fill="none" stroke="#0081F7" stroke-miterlimit="10" d="M222.875,77.009c0,0,6.274-1.428,8.406-1.442
			c2.296-0.014,9.072,1.442,9.072,1.442"/>
		
			<line fill="none" stroke="#0081F7" stroke-width="0.5" stroke-miterlimit="10" x1="237.891" y1="69.801" x2="256.571" y2="69.801"/>
		
			<line fill="none" stroke="#0081F7" stroke-width="0.5" stroke-miterlimit="10" x1="241.389" y1="66.497" x2="251.957" y2="66.497"/>
		
			<line fill="none" stroke="#0081F7" stroke-width="0.5" stroke-miterlimit="10" x1="244.961" y1="63.614" x2="248.608" y2="63.614"/>
		<circle fill="#0081F7" cx="230.518" cy="82.97" r="2.658"/>
		<line fill="none" stroke="#0081F7" stroke-miterlimit="10" x1="225.398" y1="88.12" x2="234.347" y2="88.12"/>
		<path fill="none" stroke="#0081F7" stroke-miterlimit="10" d="M270.145,77.009c0,0-6.274-1.428-8.406-1.442
			c-2.296-0.014-9.072,1.442-9.072,1.442"/>
		<circle fill="#0081F7" cx="262.502" cy="82.97" r="2.658"/>
		<line fill="none" stroke="#0081F7" stroke-miterlimit="10" x1="267.622" y1="88.12" x2="258.673" y2="88.12"/>
		<path fill="none" stroke="#0081F7" stroke-miterlimit="10" d="M238.011,111.965c0,0,5.165,2.222,9.07,2.102
			c3.904-0.12,8.469-2.403,8.469-2.403"/>
		<path fill="none" stroke="#0081F7" stroke-miterlimit="10" d="M242.385,91.648l1.119,6.911c0.296,1.829,1.875,3.173,3.728,3.173
			l0,0c1.858,0,3.44-1.351,3.73-3.186l1.09-6.897"/>
		<path fill="none" stroke="#0081F7" stroke-miterlimit="10" d="M281.793,155.985l-0.118-0.663c-0.748-4.217-4.148-7.46-8.396-8.007
			l-9.831-1.267c-5.367,0-9.718-4.351-9.718-9.718v-5.282"/>
		<path fill="none" stroke="#0081F7" stroke-miterlimit="10" d="M241.73,131.047v5.282c0,5.367-4.351,9.718-9.718,9.718
			l-9.619,1.873c-3.561,0.693-6.448,3.298-7.503,6.769l-0.66,2.171"/>
		
			<line fill="none" stroke="#0081F7" stroke-width="0.5" stroke-miterlimit="10" x1="227.861" y1="90.547" x2="234.347" y2="90.547"/>
		
			<line fill="none" stroke="#0081F7" stroke-width="0.5" stroke-miterlimit="10" x1="258.605" y1="90.547" x2="265.16" y2="90.547"/>
	</g>
	<g>
		<g>
			<path fill="#FFFFFF" stroke="#CECECE" stroke-width="2" stroke-miterlimit="10" d="M405.996,191.929l-33.588-33.588l0,0
				c9.275-9.275,24.313-9.275,33.588,0l0,0C415.271,167.616,415.271,182.654,405.996,191.929L405.996,191.929z"/>
			<path fill="#FFFFFF" stroke="#CECECE" stroke-width="2" stroke-miterlimit="10" d="M381.237,167.585l15.515,15.515h0
				c-4.284,4.284-11.23,4.284-15.515,0l0,0C376.953,178.816,376.953,171.869,381.237,167.585L381.237,167.585z"/>
			<path fill="none" stroke="#CECECE" stroke-width="2" stroke-miterlimit="10" d="M409.267,161.94l-6.87-6.869v0
				c1.897-1.897,4.973-1.897,6.87,0v0C411.164,156.968,411.164,160.043,409.267,161.94L409.267,161.94z"/>
			
				<line fill="none" stroke="#CECECE" stroke-width="2" stroke-miterlimit="10" x1="405.29" y1="157.707" x2="443.665" y2="196.082"/>
			<circle fill="none" stroke="#CECECE" stroke-width="2" stroke-miterlimit="10" cx="445.053" cy="200.417" r="5"/>
			
				<line fill="none" stroke="#CECECE" stroke-width="2" stroke-miterlimit="10" x1="399.252" y1="251.219" x2="445.053" y2="205.417"/>
			<path fill="#FFFFFF" stroke="#CECECE" stroke-width="2" stroke-miterlimit="10" d="M422.811,267.353h-47.5l0,0
				c0-8.911,7.224-16.134,16.134-16.134h15.231C415.587,251.219,422.811,258.442,422.811,267.353L422.811,267.353z"/>
		</g>
		<g>
			<path fill="#FFFFFF" stroke="#CECECE" stroke-width="2" stroke-miterlimit="10" d="M333.848,267.643H155.907
				c-2.566,0-4.647-2.08-4.647-4.647V155.742c0-2.566,2.08-4.647,4.647-4.647h177.941c2.566,0,4.647,2.08,4.647,4.647v107.255
				C338.495,265.563,336.414,267.643,333.848,267.643z"/>
			
				<rect x="169.773" y="232.51" fill="none" stroke="#CECECE" stroke-width="2" stroke-miterlimit="10" width="46.283" height="16.62"/>
			<circle fill="none" stroke="#CECECE" stroke-width="2" stroke-miterlimit="10" cx="244.877" cy="209.369" r="16.199"/>
		</g>
		<g>
			<line fill="none" stroke="#CECECE" stroke-width="2" stroke-miterlimit="10" x1="0" y1="272.547" x2="487.23" y2="272.547"/>
		</g>
		<g>
			<polygon fill="#FFFFFF" stroke="#CECECE" stroke-width="2" stroke-miterlimit="10" points="82.897,267.353 51.36,267.353 
				43.36,225.369 90.897,225.369 			"/>
			<path fill="none" stroke="#CECECE" stroke-width="2" stroke-miterlimit="10" d="M49.855,222.922c0,0,1.75-16.5-10.375-26.5
				s-18.875-12.625-18.875-12.625s24.88,0.875,30.002,12.75s5.998,25.125,5.998,25.125"/>
			<path fill="none" stroke="#CECECE" stroke-width="2" stroke-miterlimit="10" d="M86.105,221.797c0,0,0.625-11.625,6.125-20.25
				s15.375-12.375,15.375-12.375s-21.875-2.125-26.125,10.875s-4.375,21.75-4.375,21.75"/>
			<path fill="none" stroke="#CECECE" stroke-width="2" stroke-miterlimit="10" d="M68.355,220.797c0,0-1.125-14.75,2.625-24.75
				s14.125-23.625,24.5-26.375s8.5-5,8.5-5s-0.75,6.375-9.5,12.5s-9.75,14.625-9.75,14.625"/>
			<path fill="none" stroke="#CECECE" stroke-width="2" stroke-miterlimit="10" d="M42.855,185.672c0,0-1.75-8.125-5.5-11.625
				s-5.5-4.75-5.5-4.75s15-2,21.125,11.5s6.375,27.5,6.375,27.5"/>
			<path fill="none" stroke="#CECECE" stroke-width="2" stroke-miterlimit="10" d="M59.355,187.214c0,0-2.625-4.333,4.208-13.833
				s10.5-14.333,10.5-14.333s-2.5,9.5-1.833,14.083c0.667,4.583,0.333,10.667,0.333,10.667"/>
		</g>
		<path fill="#FFFFFF" stroke="#CECECE" stroke-width="2" stroke-miterlimit="10" d="M46.738,56.982
			c-4.51-17.447,5.977-35.246,23.424-39.756c12.281-3.175,24.73,1.088,32.602,9.973C95.296,8.033,74.514-2.956,54.105,2.32
			C32.081,8.013,18.843,30.482,24.536,52.505s28.162,35.262,50.185,29.568c0.762-0.197,1.51-0.418,2.25-0.654
			C62.983,80.842,50.424,71.238,46.738,56.982z"/>
	</g>
</g>
</svg>
