<?xml version="1.0" encoding="utf-8"?>
<!-- Generator: Adobe Illustrator 17.0.2, SVG Export Plug-In . SVG Version: 6.00 Build 0)  -->
<!DOCTYPE svg PUBLIC "-//W3C//DTD SVG 1.1//EN" "http://www.w3.org/Graphics/SVG/1.1/DTD/svg11.dtd">
<svg version="1.1" id="Layer_1" xmlns="http://www.w3.org/2000/svg" xmlns:xlink="http://www.w3.org/1999/xlink" x="0px" y="0px"
	 width="487.23px" height="233.001px" viewBox="0 0 487.23 233.001" enable-background="new 0 0 487.23 233.001"
	 xml:space="preserve">
<g>
	<path fill="#F4F4F4" d="M463.637,231.001c0,0,11.593-33.343-15.458-59.747s-64.659-24.671-72.692-58.131
		c-8.033-33.461-17.251-54.812-39.366-61.039c-30.112-8.478-59.452,33.129-73.91,22.526c-14.459-10.603-30.75-36.543-60.928-33.094
		c-28.735,3.284-42.841,23.346-58.728,52.072c-15.887,28.727-41.332,40.726-78.688,38.987
		c-37.357-1.739-50.251,19.753-50.251,45.495s0,52.931,0,52.931H463.637z"/>
	<g>
		
			<rect x="403.615" y="158.001" fill="#FFFFFF" stroke="#CECECE" stroke-width="2" stroke-miterlimit="10" width="12.5" height="70.5"/>
		
			<line fill="none" stroke="#CECECE" stroke-width="2" stroke-miterlimit="10" x1="409.615" y1="163.001" x2="409.615" y2="201.001"/>
		<rect x="403.615" y="208.001" fill="none" stroke="#CECECE" stroke-width="2" stroke-miterlimit="10" width="12.5" height="10"/>
	</g>
	<g>
		
			<rect x="421.615" y="164.097" transform="matrix(0.9865 -0.1639 0.1639 0.9865 -26.4131 72.4667)" fill="#FFFFFF" stroke="#CECECE" stroke-width="2" stroke-miterlimit="10" width="8.667" height="64.404"/>
		
			<rect x="421.921" y="175.309" transform="matrix(0.9865 -0.1639 0.1639 0.9865 -26.7111 72.5418)" fill="#FFFFFF" stroke="#CECECE" stroke-width="2" stroke-miterlimit="10" width="8.667" height="45.667"/>
	</g>
	<g>
		
			<rect x="436.282" y="159.001" fill="#FFFFFF" stroke="#CECECE" stroke-width="2" stroke-miterlimit="10" width="10.333" height="70.5"/>
		
			<line fill="none" stroke="#CECECE" stroke-width="2" stroke-miterlimit="10" x1="436.615" y1="171.001" x2="446.615" y2="171.001"/>
	</g>
	<g>
		<circle fill="#FFFFFF" stroke="#CECECE" stroke-width="2" stroke-miterlimit="10" cx="68.615" cy="40.131" r="35.371"/>
		<circle fill="#FFFFFF" stroke="#CECECE" stroke-width="2" stroke-miterlimit="10" cx="68.615" cy="40.131" r="28"/>
		<line fill="none" stroke="#CECECE" stroke-width="2" stroke-miterlimit="10" x1="68.615" y1="40.001" x2="68.615" y2="17.001"/>
		<line fill="none" stroke="#CECECE" stroke-width="2" stroke-miterlimit="10" x1="68.615" y1="40.001" x2="83.615" y2="40.001"/>
	</g>
	<g>
		<polygon fill="#FFFFFF" stroke="#0081F7" stroke-miterlimit="10" points="247.115,212.358 184.865,212.358 181.459,135.001 
			175.115,138.751 154.615,130.001 181.459,101.835 217.112,94.358 253.771,101.835 		"/>
		<g>
			<polygon fill="#FFFFFF" stroke="#0081F7" stroke-miterlimit="10" points="227.269,97.001 218.117,125.168 209.079,97.001 
				209.079,80.755 227.269,80.755 			"/>
		</g>
		<path fill="#FFFFFF" stroke="#0081F7" stroke-miterlimit="10" d="M154.615,130.001l-22.391,26.426
			c-1.013,1.213-1.72,2.65-2.063,4.193l-0.49,2.206c-0.493,2.217-0.207,4.535,0.808,6.566l0,0c1.258,2.516,3.528,4.377,6.242,5.117
			l54.257,14.797l4.729-8.867l-46.945-17.14l13.486-13.906c1.911-1.773,3.587-3.784,4.986-5.983l5.094-5.849"/>
		<g>
			<polyline fill="#FFFFFF" stroke="#0081F7" stroke-miterlimit="10" points="200.073,177.444 206.094,174.941 212.115,176.467 
				212.115,179.001 			"/>
			<path fill="#FFFFFF" stroke="#0081F7" stroke-miterlimit="10" d="M195.252,182.782c0.612-1.295,1.757-2.365,3.228-3.018
				l0.589-0.261l2.022-0.898c1.013-0.45,2.142-0.685,3.289-0.685h2.539c1.718,0,3.377,0.528,4.66,1.482h0
				c1.115,0.83,1.884,1.935,2.194,3.156l0.424,1.668c0.24,0.945,0.197,1.926-0.127,2.854l-1.519,4.357
				c-0.121,0.348-0.281,0.686-0.478,1.01l-1.931,3.182c-1.194,1.967-3.609,3.207-6.249,3.207h-4.319
				c-3.128,0-5.878-1.733-6.737-4.246l-0.676-1.977c-0.424-1.239-0.346-2.561,0.221-3.76L195.252,182.782z"/>
		</g>
		<g>
			<polygon fill="#FFFFFF" stroke="#0081F7" stroke-miterlimit="10" points="158.81,160.486 148.761,181.057 189.795,193.001 
				197.628,177.739 			"/>
			<g>
				<line fill="none" stroke="#0081F7" stroke-miterlimit="10" x1="149.799" y1="181.359" x2="169.945" y2="165.435"/>
				<line fill="none" stroke="#0081F7" stroke-miterlimit="10" x1="161.273" y1="183.987" x2="177.973" y2="169.652"/>
				<line fill="none" stroke="#0081F7" stroke-miterlimit="10" x1="157.436" y1="163.3" x2="159.872" y2="172.607"/>
				<line fill="none" stroke="#0081F7" stroke-miterlimit="10" x1="166.446" y1="180.588" x2="167.984" y2="186.652"/>
				<line fill="none" stroke="#0081F7" stroke-miterlimit="10" x1="174.529" y1="172.607" x2="179.007" y2="189.307"/>
				<line fill="none" stroke="#0081F7" stroke-miterlimit="10" x1="177.087" y1="182.144" x2="187.874" y2="174.542"/>
				<line fill="none" stroke="#0081F7" stroke-miterlimit="10" x1="179.007" y1="188.568" x2="196.593" y2="178.223"/>
				<line fill="none" stroke="#0081F7" stroke-miterlimit="10" x1="187.874" y1="184.43" x2="189.795" y2="193.001"/>
			</g>
		</g>
		<line fill="none" stroke="#0081F7" stroke-miterlimit="10" x1="164.74" y1="163.001" x2="181.459" y2="135.001"/>
		<line fill="none" stroke="#0081F7" stroke-miterlimit="10" x1="167.7" y1="165.185" x2="181.459" y2="140.335"/>
		<rect x="184.865" y="212.358" fill="#FFFFFF" stroke="#0081F7" stroke-miterlimit="10" width="62.25" height="9.019"/>
		<rect x="206.115" y="213.001" fill="#FFFFFF" stroke="#0081F7" stroke-miterlimit="10" width="19" height="8.376"/>
		<rect x="184.865" y="221.377" fill="#FFFFFF" stroke="#0081F7" stroke-miterlimit="10" width="62.25" height="10.624"/>
		<g>
			<path fill="#FFFFFF" stroke="#0081F7" stroke-miterlimit="10" d="M193.115,37.001c0,0,0,10.805,0,17.69
				s3.386,13.869,10.417,21.23c7.176,7.513,11.041,9.354,14.45,9.418c3.409-0.063,7.064-1.905,14.24-9.418
				c7.032-7.362,10.892-14.345,10.892-21.23s0-17.69,0-17.69"/>
			<path fill="none" stroke="#0081F7" stroke-miterlimit="10" d="M197.787,37.351c0,0,5.164-1.176,6.919-1.186
				c1.89-0.012,7.467,1.186,7.467,1.186"/>
			<path fill="none" stroke="#0081F7" stroke-miterlimit="10" d="M236.692,37.351c0,0-5.164-1.176-6.919-1.186
				c-1.89-0.012-7.467,1.186-7.467,1.186"/>
			<circle fill="#0081F7" cx="204.979" cy="44.014" r="2.187"/>
			<path fill="none" stroke="#0081F7" stroke-miterlimit="10" d="M211.544,50.043h-11.401c-1.056,0-1.973-0.729-2.211-1.758
				l-1.279-5.528c-0.329-1.422,0.751-2.781,2.211-2.781h13.582c1.399,0,2.465,1.254,2.24,2.635l-0.902,5.528
				C213.604,49.237,212.656,50.043,211.544,50.043z"/>
			<circle fill="#0081F7" cx="230.175" cy="44.014" r="2.187"/>
			<path fill="none" stroke="#0081F7" stroke-miterlimit="10" d="M223.61,50.043h11.401c1.056,0,1.973-0.729,2.211-1.758
				l1.279-5.528c0.329-1.422-0.751-2.781-2.211-2.781h-13.582c-1.399,0-2.465,1.254-2.24,2.635l0.902,5.528
				C221.55,49.237,222.498,50.043,223.61,50.043z"/>
			<line fill="none" stroke="#0081F7" stroke-miterlimit="10" x1="214.615" y1="42.501" x2="220.615" y2="42.501"/>
			<line fill="none" stroke="#0081F7" stroke-miterlimit="10" x1="214.615" y1="58.501" x2="220.615" y2="58.501"/>
			<g>
				<path fill="#0081F7" d="M220.253,67.616c1.525,0,2.785,0.629,3.552,1.136c-1.469,1.334-4.106,3.302-6.291,3.302
					c-2.184,0-5.228-1.924-7.034-3.28c1.007-0.555,2.378-1.158,3.473-1.158c1.172,0,2.006,0.296,2.499,0.544
					c0.24,0.121,0.497,0.182,0.765,0.182c0.409,0,0.814-0.149,1.147-0.419C218.573,67.811,219.375,67.616,220.253,67.616
					 M220.253,66.616c-1.096,0-2.201,0.26-2.506,0.519c-0.155,0.132-0.342,0.207-0.531,0.207c-0.106,0-0.213-0.024-0.315-0.075
					c-0.583-0.293-1.575-0.651-2.948-0.651c-2.328,0-5.205,2.054-5.205,2.054s5.068,4.383,8.766,4.383
					c3.698,0,7.807-4.383,7.807-4.383S223.266,66.616,220.253,66.616L220.253,66.616z"/>
			</g>
			<path fill="none" stroke="#0081F7" stroke-linecap="round" stroke-linejoin="round" stroke-miterlimit="10" d="M193.407,63.244
				c0,0-5.661-2.38-10.227-8.042s-4.565-11.188-4.565-11.188s2.191,2.788,6.026-1.23c3.835-4.018-0.183-21.914,7.853-31.593
				c8.035-9.679,19.723-11.892,27.758-10.146c8.035,1.746,9.922,6.311,9.922,6.311s5.235-1.644,10.531,2.557
				s7.122,14.61,7.122,19.175s1.278,14.234,3.47,15.7s5.661,0,5.661,0s-1.644,7.675-6.392,11.51
				c-4.748,3.835-8.866,4.751-8.866,4.751"/>
			<path fill="none" stroke="#0081F7" stroke-linecap="round" stroke-linejoin="round" stroke-miterlimit="10" d="M193.407,35.457
				c0,0,5.62-0.529,9.385-2.719s9.38-6.573,9.38-6.573s0.41,3.448-0.685,4.646c-1.096,1.198-2.739,2.841-2.739,2.841
				s8.491-1.461,13.559-4.931c5.068-3.47,8.721-10.409,8.721-10.409s2.374,7.487,4.565,10.775s7.122,6.37,7.122,6.37"/>
			
				<line fill="none" stroke="#0081F7" stroke-linecap="round" stroke-linejoin="round" stroke-miterlimit="10" x1="212.172" y1="70.04" x2="222.306" y2="69.903"/>
		</g>
		<line fill="none" stroke="#0081F7" stroke-miterlimit="10" x1="191.457" y1="173.522" x2="241.115" y2="99.253"/>
		<line fill="none" stroke="#0081F7" stroke-miterlimit="10" x1="187.865" y1="172.887" x2="238.115" y2="98.642"/>
		<polyline fill="#FFFFFF" stroke="#0081F7" stroke-miterlimit="10" points="228.417,96.694 242.061,101.71 235.28,111.501 
			226.737,111.501 232.561,116.001 217.292,140.335 		"/>
		<polyline fill="#FFFFFF" stroke="#0081F7" stroke-miterlimit="10" points="206.935,96.694 193.292,101.71 200.073,111.501 
			208.615,111.501 202.792,116.001 218.061,140.335 		"/>
		<line fill="none" stroke="#0081F7" stroke-miterlimit="10" x1="209.115" y1="186.168" x2="214.321" y2="186.859"/>
		<line fill="none" stroke="#0081F7" stroke-miterlimit="10" x1="206.449" y1="190.716" x2="212.293" y2="191.307"/>
		<line fill="none" stroke="#0081F7" stroke-miterlimit="10" x1="203.193" y1="194.001" x2="210.17" y2="194.933"/>
	</g>
	<g>
		<g>
			<path fill="#FFFFFF" stroke="#CECECE" stroke-width="2" stroke-miterlimit="10" d="M391.979,203.498h-166.04
				c-2.566,0-4.647-2.08-4.647-4.647V99.005c0-2.566,2.08-4.647,4.647-4.647h166.04c2.566,0,4.647,2.08,4.647,4.647v99.846
				C396.626,201.418,394.545,203.498,391.979,203.498z"/>
			<circle fill="none" stroke="#CECECE" stroke-width="2" stroke-miterlimit="10" cx="308.959" cy="148.928" r="15.169"/>
			
				<rect x="294.112" y="203.635" fill="#FFFFFF" stroke="#CECECE" stroke-width="2" stroke-miterlimit="10" width="32.513" height="21.366"/>
			
				<rect x="280.626" y="225.001" fill="#FFFFFF" stroke="#CECECE" stroke-width="2" stroke-miterlimit="10" width="60.666" height="7"/>
		</g>
		<line fill="none" stroke="#CECECE" stroke-width="2" stroke-miterlimit="10" x1="0" y1="232.001" x2="487.23" y2="232.001"/>
		<g>
			<g>
				<path fill="none" stroke="#CECECE" stroke-miterlimit="10" d="M90.609,142.324l-24.642,69.932
					c4.54,1.976,9.547,3.078,14.814,3.078c20.527,0,37.167-16.64,37.167-37.167C117.949,161.044,106.365,146.635,90.609,142.324z"/>
				<line fill="none" stroke="#CECECE" stroke-miterlimit="10" x1="63.244" y1="218.335" x2="91.958" y2="136.102"/>
				<circle fill="#FFFFFF" stroke="#CECECE" stroke-miterlimit="10" cx="80.039" cy="177.829" r="30.922"/>
				<rect x="75.365" y="215.335" fill="#FFFFFF" stroke="#CECECE" stroke-miterlimit="10" width="7" height="11.917"/>
				<rect x="64.865" y="227.251" fill="#FFFFFF" stroke="#CECECE" stroke-miterlimit="10" width="27.093" height="3.75"/>
			</g>
			<path fill="#FFFFFF" stroke="#CECECE" stroke-miterlimit="10" d="M104.114,166.302c0,0-9.013,2.458-12.293-0.002
				s-4.37-4.647-6.283-3.281s-3.005,3.552-3.278,4.372c-0.273,0.82-3.552,0.546-4.919,1.913c-1.367,1.367,0.274,3.553,2.46,3.826
				c2.186,0.273,3.826,0.547,5.466,1.913c1.64,1.367,1.367,3.263,0.547,4.911c-0.82,1.648-1.051,2.468,0.316,3.562
				c1.367,1.093,4.985,0,4.985,0v-3.28c0,0,2.269,0.399,2.269,1.766s-1.284,4.499-1.284,4.499h3.28l0.547,6.57
				c0,0,4.92-8.057,6.013-8.057c1.093,0,4.1-0.612,5.193-1.159s2.733-6.046,2.733-7.685c0-1.64-0.547-8.216-2.186-9.309
				S104.114,166.302,104.114,166.302z"/>
			<path fill="#FFFFFF" stroke="#CECECE" stroke-miterlimit="10" d="M82.535,177.703c0,0-4.007-1.293-5.693-2.66
				c-1.686-1.367-4.966,0.4-5.239,2.66c-0.273,2.26,2.186,3.08,2.733,6.086c0.547,3.006-1.64,4.1-1.64,7.379
				s-0.547,6.833,0.547,6.833c1.093,0,2.186-3.28,4.92-5.193c2.733-1.913,1.367-2.733,4.373-3.28
				c3.006-0.547,3.553-3.246,3.553-3.246s-2.46-0.307-3.553-2.494C81.441,181.603,82.535,177.703,82.535,177.703z"/>
			<path fill="#FFFFFF" stroke="#CECECE" stroke-miterlimit="10" d="M55.204,192.808c0,0,1.913-0.82,6.013-4.373
				c4.1-3.553,6.013-2.733,6.013-6.013s-2.46-4.373-3.006-6.286c-0.547-1.913-2.46-5.739-3.006-4.373
				c-0.547,1.367-1.913,2.048-3.826,2.801c-1.913,0.752,0,2.924-0.273,7.577C56.844,186.796,55.204,192.808,55.204,192.808z"/>
			<path fill="#FFFFFF" stroke="#CECECE" stroke-miterlimit="10" d="M57.39,171.475c0,0-1.093-3.811,0-4.631
				c1.093-0.82,1.64,0.547,3.826,1.093c2.186,0.547,5.739,0.035,7.926-1.349c2.186-1.384,0-5.757,0-6.85
				c0-1.093-3.28-1.367-3.28-1.367l1.367-4.373c0,0-5.193,0.273-7.379,3.28c-2.186,3.006-6.833,6.833-6.833,9.019
				C53.017,168.484,57.39,171.475,57.39,171.475z"/>
			<path fill="#FFFFFF" stroke="#CECECE" stroke-miterlimit="10" d="M74.335,162.598c0,0-1.64-8.326,0-8.599
				c1.64-0.273,6.833-1.093,9.019,0c2.186,1.093,1.913,1.76,0,4.023s-2.481,4.429-4.52,4.576
				C76.795,162.745,74.335,162.598,74.335,162.598z"/>
		</g>
	</g>
</g>
</svg>
